<?xml version="1.0" encoding="utf-8"?>
<!-- Generator: Adobe Illustrator 28.0.0, SVG Export Plug-In . SVG Version: 6.00 Build 0)  -->
<svg version="1.1" id="Слой_1" xmlns="http://www.w3.org/2000/svg" xmlns:xlink="http://www.w3.org/1999/xlink" x="0px" y="0px"
	 viewBox="0 0 1000 190.5" style="enable-background:new 0 0 1000 190.5;" xml:space="preserve">
<style type="text/css">
	.st0{fill:#00A88E;}
</style>
<path class="st0" d="M450.5,95.8c0,38-23.2,55.9-52.1,55.9h-17.7v-22.8h16.3c17.4,0,29.1-9.4,29.1-33.1c0-23.4-11-35.1-29.6-35.1
	c-18,0-30.8,11-30.8,34.7v95.1h-24.1V40.9h24.1v12.9h3.4c7.6-10.1,19.7-15.9,32.4-15.6C428.3,38.2,450.5,57.5,450.5,95.8z M292,85.9
	L276,84.3c-12.7-1.2-19.3-4.6-19.3-11.9c0-8.8,8.5-13.8,20.7-13.8c12.6,0,20.7,6,21.4,14.5h23.2c-0.9-21.6-17.6-34.9-44.3-34.9
	c-26.9,0-45,14.2-45,35.1c0,17.4,11,28.7,36,31.3l16.3,1.6c9.8,0.9,16.5,3,16.5,12.4c0,8.6-6.2,14.7-22.5,14.7c-15,0-22.4-6.8-25-16
	h-25.1c2.6,20.9,20.1,37.1,50.2,37.1c28.2,0,46.6-15,46.6-37C325.6,97.9,312.7,88,292,85.9z M544,117.3
	c-3.8,8.7-12.9,15.3-25.7,15.3c-17.7,0-30.8-11.5-30.8-36.3c0-23.7,12.2-36.7,31-36.7c16.7,0,26.4,10.1,27.4,25.2h-43.4v17.5h67.1
	V90.7c0-31.9-21.1-52.6-51.2-52.6c-28,0-54.9,19-54.9,58.1s26.9,58.2,54.9,58.2c23.2,0.8,43.8-14.7,49.6-37.1H544z M163.7,38.2
	c-26.4,0-46.1,13.8-48.5,34.9h26c1.8-7.8,9-13.5,22.5-13.5c17.4,0,23.2,9.2,23.2,20.5v37.9c-9.8,11.3-21.4,16.5-32.8,16.5
	c-12,0-20.2-5.8-20.2-16.1c0-9.9,6.4-16.1,18.8-16.1H172V84.8H152c-27.6,0-43,13.8-43,34.9c0,19.8,14.9,34.8,39.5,34.8
	c12.7-0.2,24.9-4.5,34.9-12.2h3.4v9.5H211v-74C211,50.3,192.4,38.2,163.7,38.2L163.7,38.2z M0,151.7h24.1V0H0.1L0,151.7L0,151.7z
	 M101.4,40.9H71.9L36.8,87.1v14.5l36,50.1h29.9L60.5,94.3L101.4,41L101.4,40.9z M973.4,40.9l-19.8,43.9c-4.5,8.9-8.1,18.2-10.7,27.8
	h-3.5c-1.4-6.9-6.2-17-11-27.5l-19.8-44.1H882l46.3,99.6l-22.9,50.1h25.7L1000,40.9L973.4,40.9L973.4,40.9z M876.6,40.9h-29.4
	l-35.1,46.2v14.5l36,50.1H878l-42.3-57.4L876.6,40.9L876.6,40.9z M725.6,85.9l-16.1-1.6c-12.6-1.2-19.3-4.6-19.3-11.9
	c0-8.8,8.5-13.8,20.7-13.8c12.7,0,20.7,6,21.4,14.5h23.2c-0.8-21.6-17.6-34.9-44.3-34.9c-26.9,0-45,14.2-45,35.1
	c0,17.4,11.1,28.7,36,31.2l16.3,1.6c9.9,1,16.5,3,16.5,12.4c0,8.5-6.2,14.7-22.5,14.7c-15,0-22.4-6.8-25-16h-25.1
	c2.6,20.9,20.1,37.1,50.2,37.1c28.2,0,46.6-14.9,46.6-37C759.1,97.9,746.3,88,725.6,85.9z M775.3,151.6h24.1V0h-24.1V151.6
	L775.3,151.6z M616.3,53.8h-3.5V40.9h-24.1v110.7h24.1V93.7c0-19.7,9.1-31.2,27.1-31.2h15.3V38.2h-8.8
	C629.6,38.2,622.5,44.4,616.3,53.8L616.3,53.8z"/>
</svg>
