<svg width="154" height="52" viewBox="0 0 154 52" fill="none" xmlns="http://www.w3.org/2000/svg">
<path d="M40.8848 31.8993C37.6178 31.3988 34.3206 31.1293 31.0178 31.0936C30.8006 31.0936 30.6246 31.2668 30.6218 31.4841C30.6218 31.4841 30.6218 31.4841 30.6218 31.4868V42.3686C30.6218 42.5886 30.8033 42.7618 31.0206 42.7618C31.0343 42.7618 31.0453 42.7618 31.0591 42.7618C35.6571 42.2971 39.5346 38.1418 41.2011 32.3998C41.2616 32.1908 41.1406 31.9736 40.9316 31.9131C40.9151 31.9076 40.8986 31.9048 40.8848 31.9021V31.8993Z" fill="#1F1F1F"/>
<path d="M54.5034 16.0297C53.5134 15.2872 52.4711 14.6162 51.3849 14.025C49.6854 13.1037 47.9144 12.3227 46.0856 11.693V8.05474C46.0856 6.60549 47.2626 5.43125 48.7119 5.4285H50.8459C51.2419 5.42575 51.5609 5.10125 51.5581 4.70525C51.5581 4.69975 51.5581 4.697 51.5581 4.6915V0.742499C51.5636 0.341 51.2446 0.011 50.8459 0H36.6366C36.2296 0 35.9024 0.33 35.9024 0.736999V4.6915C35.8941 5.09025 36.2131 5.42025 36.6119 5.4285C36.6201 5.4285 36.6284 5.4285 36.6366 5.4285H38.7981C40.2529 5.4285 41.4354 6.59999 41.4464 8.05474V10.384C39.4691 9.95774 37.4726 9.64699 35.4596 9.45174C35.2864 9.42974 35.1296 9.55349 35.1076 9.72674C35.0911 9.85324 35.1544 9.97699 35.2644 10.0402C38.4791 11.9652 41.0394 15.686 42.2081 20.2482C42.2466 20.416 42.4089 20.5232 42.5766 20.4957C47.2131 19.635 51.3134 18.2957 54.4511 16.544C54.6024 16.4642 54.6601 16.2745 54.5804 16.1232C54.5611 16.0875 54.5364 16.0545 54.5034 16.0297ZM43.5336 10.901C43.3356 10.8515 43.1156 10.802 42.8956 10.7277V8.05474C42.8956 6.62199 42.1421 5.2965 40.9074 4.5705C42.4144 4.9445 43.4896 6.27824 43.5336 7.83199V10.901ZM40.0494 3.85H37.3489V1.47675H50.1089V3.85H47.6339C45.9646 3.85 44.4631 4.85925 43.8306 6.40199C43.2146 4.85375 41.7159 3.84175 40.0494 3.85ZM44.6364 9.44349V11.22C44.4659 11.1705 44.2954 11.121 44.1469 11.0715V7.58724C44.2926 6.23974 45.2001 5.09575 46.4761 4.642C45.3156 5.39 44.6144 6.67424 44.6116 8.05474V9.42974C44.6116 9.42974 44.6226 9.45174 44.6364 9.45174V9.44349Z" fill="#1F1F1F"/>
<path d="M30.9051 21.5895C34.4278 21.562 37.9451 21.265 41.4211 20.6985C39.8618 14.3378 35.6461 9.69854 30.6218 9.46204V21.3118C30.6218 21.463 30.7456 21.5868 30.8968 21.5868H30.9051V21.5895Z" fill="#1F1F1F"/>
<path d="M54.23 36.003C51.0647 34.309 46.992 32.978 42.405 32.153C42.284 32.1227 42.163 32.197 42.1327 32.318C42.1327 32.3207 42.1327 32.3235 42.1327 32.3262C40.8567 36.8885 38.258 40.546 34.969 42.3857C34.8507 42.46 34.815 42.6167 34.8892 42.735C34.9387 42.812 35.024 42.8587 35.1147 42.8532C36.784 42.68 38.4285 42.46 39.9987 42.1657C38.5055 44.3052 36.058 45.5785 33.4482 45.5757H32.956C30.2032 45.573 27.6457 44.154 26.1827 41.822C27.1727 42.3225 28.248 42.6387 29.3507 42.7542C29.5652 42.768 29.7522 42.6057 29.766 42.3885C29.766 42.3802 29.766 42.3692 29.766 42.361V31.4875C29.766 31.273 29.5955 31.0997 29.381 31.097C29.3782 31.097 29.3755 31.097 29.3727 31.097C27.9015 31.097 26.4275 31.1685 24.9727 31.2675V30.4425C26.4192 30.3187 27.8932 30.2692 29.3892 30.2445C29.5982 30.2362 29.7632 30.0602 29.7577 29.8512V22.825C29.7632 22.616 29.5982 22.4427 29.3892 22.4345C27.8932 22.4345 26.4192 22.3602 24.9727 22.2612V21.4032C26.444 21.5022 27.9427 21.5737 29.4387 21.5985C29.6147 21.5985 29.755 21.4555 29.7577 21.2795V9.45449C28.0335 9.56999 26.378 10.1667 24.9727 11.1732V8.05474C24.9727 6.6055 26.1497 5.43125 27.599 5.4285H29.7082C30.1042 5.42575 30.4232 5.10125 30.4205 4.70525C30.4205 4.69975 30.4205 4.697 30.4205 4.6915V0.7425C30.426 0.3465 30.1152 0.0165 29.7192 0H8.52499C8.11799 0 7.79074 0.33 7.78799 0.737V4.6915C7.77974 5.09025 8.09874 5.42025 8.49749 5.4285C8.50574 5.4285 8.51674 5.4285 8.52499 5.4285H10.5847C12.0312 5.43675 13.1972 6.60825 13.2 8.05474V12.1C11.759 12.6472 10.3565 13.2907 9.00349 14.025C7.95024 14.5942 6.94099 15.2377 5.9785 15.95C5.808 16.0902 5.7805 16.3432 5.92075 16.5137C5.9565 16.5577 6.0005 16.5907 6.05 16.6182C8.32424 17.809 10.7222 18.7467 13.2 19.415V20.2977C9.96049 19.415 7.11424 18.2627 4.83175 16.8877H4.807C1.694 19.6102 0 22.7782 0 26.1387C0 29.4992 1.71875 32.725 4.90875 35.4392C5.0325 35.541 5.20575 35.5602 5.34875 35.4887C7.83199 34.1385 10.4665 33.0907 13.2 32.373V33.2557C10.8405 33.891 8.55249 34.771 6.37725 35.882C6.18475 35.9947 6.1215 36.2395 6.2315 36.432C6.25625 36.4732 6.28925 36.5117 6.32775 36.542C7.19124 37.1497 8.08499 37.7107 9.00624 38.225C10.6617 39.1132 12.3832 39.8695 14.1597 40.4827C14.245 40.5322 14.3495 40.5322 14.4347 40.4827C17.006 46.948 23.254 51.194 30.2115 51.2077H30.6047C37.169 51.2022 43.0182 47.0635 45.2072 40.876C45.232 40.876 45.232 40.8512 45.232 40.8265C47.3632 40.1637 49.423 39.292 51.3837 38.225C52.3765 37.6777 53.3335 37.07 54.2547 36.41C54.362 36.322 54.3785 36.1652 54.2932 36.058C54.2767 36.036 54.2547 36.0167 54.23 36.003ZM23.507 8.05474V37.5732C23.507 42.7955 27.7337 47.0332 32.956 47.047H33.4482C37.0205 47.0552 40.2902 45.0395 41.888 41.844C41.9127 41.8192 41.9127 41.7945 41.9375 41.745C42.0585 41.7202 42.1822 41.6955 42.2812 41.6707C40.3095 45.8177 36.124 48.4577 31.5315 48.444H31.2867C24.6867 48.444 19.338 43.0952 19.338 36.4952V9.01174C19.3985 6.4735 21.4747 4.44675 24.013 4.44675H25.707C24.3595 5.14525 23.5097 6.53675 23.507 8.05474ZM9.22624 3.85V1.47675H28.9795V3.85H23.9992C21.7635 3.85 19.7725 5.269 19.0492 7.38375C18.315 5.269 16.324 3.85 14.0855 3.85H9.22624ZM30.5992 49.7365H30.206C21.6315 49.7255 14.685 42.779 14.674 34.2045V8.05474C14.674 6.5395 13.8325 5.148 12.4905 4.44675H14.0855C16.6237 4.44675 18.7 6.4735 18.7605 9.01174V36.4952C18.766 43.4197 24.376 49.0297 31.3005 49.0325H31.5452C36.5447 49.0517 41.0712 46.0735 43.032 41.4755C43.175 41.448 43.3125 41.4067 43.4472 41.3517C41.2115 46.453 36.168 49.7475 30.5992 49.7447V49.7365Z" fill="#1F1F1F"/>
<path d="M55.878 17.1502C55.6993 16.9935 55.4408 16.9687 55.2373 17.0897C52.0363 18.9267 47.8123 20.3567 43.008 21.2752C42.711 21.333 42.5158 21.6162 42.5708 21.9132C43.096 24.8337 43.0713 27.8257 42.4993 30.738C42.4388 31.035 42.6285 31.3265 42.9255 31.387C42.9255 31.387 42.931 31.387 42.9338 31.387C47.6088 32.2807 51.764 33.653 54.9458 35.4212C55.1465 35.534 55.394 35.512 55.57 35.3635C58.716 32.6492 60.4018 29.4675 60.4018 26.1235C60.4018 22.7795 58.826 19.7985 55.878 17.1475V17.1502Z" fill="#1F1F1F"/>
<path d="M31.0082 30.2494C34.4071 30.2741 37.8006 30.5519 41.1584 31.0744C41.3646 31.1046 41.5599 30.9726 41.6039 30.7691C42.2034 27.8404 42.2309 24.8236 41.6836 21.8839C41.6369 21.6886 41.4499 21.5594 41.2519 21.5869C37.8666 22.1231 34.4484 22.4064 31.0219 22.4394C30.8102 22.4421 30.6397 22.6126 30.6369 22.8244V29.8534C30.6369 30.0651 30.8102 30.2384 31.0219 30.2384L31.0082 30.2494Z" fill="#1F1F1F"/>
<path d="M151.33 18.9489L154 18.3109L153.89 16.5839H144.851L144.738 18.2256L147.103 18.9736V24.5946H139.343V18.9489L141.928 18.3109L141.818 16.5839H132.723L132.608 18.2009L135.116 18.9736V33.3341L132.556 34.1371L132.668 35.7239H141.818L141.928 33.9418L139.343 33.3011V26.8469H147.103V33.3341L144.625 34.1096L144.793 35.7239H153.915L154 33.9418L151.33 33.3011V18.9489Z" fill="#1F1F1F"/>
<path d="M92.3158 20.8991C91.6035 16.1636 86.4033 16.5569 84.9293 16.5569C83.4553 16.5569 79.7511 17.2444 76.5143 16.4084L76.0468 18.2261C76.7838 18.5341 77.5483 18.7734 78.3293 18.9384V33.3649L75.8021 33.9561L75.8763 35.7216C75.8763 35.7216 78.8463 35.5731 80.4633 35.5731C82.0803 35.5731 85.1521 35.7216 85.1521 35.7216L85.2483 33.9561L82.4983 33.3181V28.2251C83.0868 28.3461 85.3693 28.7394 87.5528 28.2251C90.1075 27.6091 93.028 25.6731 92.3158 20.8991ZM82.5011 25.7694V19.2904C82.6468 19.2684 82.7953 19.2684 82.9438 19.2436C86.9175 18.8751 88.023 20.5911 88.023 22.4584C88.023 24.3256 86.868 26.5064 82.5011 25.7694Z" fill="#1F1F1F"/>
<path d="M111.486 16.7936C111.494 16.7276 111.45 16.6671 111.384 16.6561C111.376 16.6561 111.368 16.6561 111.357 16.6561C108.951 16.8073 106.536 16.7936 104.13 16.6121L104.017 18.2786L106.327 18.9523C106.327 18.9523 104.518 23.993 103.225 27.3288L103.184 26.6935C103.184 26.6935 101.3 22.1643 100.503 20.0743C99.705 17.9843 99.5565 17.4178 99.5153 16.5708C99.5153 16.5708 97.197 16.9008 93.3113 16.5708L93.1133 18.2401L95.2583 18.9908L100.043 29.922H102.268C102.268 29.922 101.24 33.387 99.5428 33.6483L96.482 31.7233C96.482 31.7233 94.667 32.298 94.7275 34.1983C94.788 36.0985 99.1028 37.622 101.636 34.8335C104.056 32.1715 107.358 22.7335 108.236 21.056C108.744 20.11 109.798 18.801 111.261 18.383L111.486 16.7936Z" fill="#1F1F1F"/>
<path d="M130.104 33.255C129.735 33.2055 128.704 33.0818 127.601 33.0103V18.9248L130.153 18.3115L130.104 16.4993C130.104 16.4993 127.676 16.722 123.229 16.6725C119.305 16.623 114.445 16.623 113.389 16.623C113.277 16.6203 113.18 16.7055 113.169 16.8183L113.095 18.119C113.073 18.1905 113.114 18.2648 113.186 18.2868C113.197 18.2895 113.208 18.2923 113.219 18.2923C114.146 18.493 115.004 18.9248 115.721 19.5435C115.721 19.5435 115.845 24.3533 115.133 26.8558C114.421 29.3583 113.736 31.0743 111.924 32.936C110.747 33.0323 109.985 33.156 109.691 33.211C109.608 33.2275 109.545 33.2963 109.542 33.3815L109.886 40.8065H111.849L113.15 35.7273H126.598L127.423 40.8065H129.656L130.244 33.4448C130.25 33.3568 130.189 33.277 130.104 33.255ZM123.405 33.1065C122.055 33.1808 120.534 33.057 116.951 32.8865C116.401 32.8618 115.851 32.837 115.331 32.837C116.629 30.791 117.465 28.4893 117.784 26.0885C118.375 21.771 118.152 19.1448 118.152 19.1448L123.405 19.0953V33.1065Z" fill="#1F1F1F"/>
</svg>
