<svg width="154" height="52" viewBox="0 0 154 52" fill="none" xmlns="http://www.w3.org/2000/svg">
<path d="M40.8848 31.8995C37.6178 31.399 34.3206 31.1295 31.0178 31.0938C30.8006 31.0938 30.6246 31.267 30.6218 31.4842C30.6218 31.4842 30.6218 31.4842 30.6218 31.487V42.3687C30.6218 42.5887 30.8033 42.762 31.0206 42.762C31.0343 42.762 31.0453 42.762 31.0591 42.762C35.6571 42.2972 39.5346 38.142 41.2011 32.4C41.2616 32.191 41.1406 31.9738 40.9316 31.9133C40.9151 31.9078 40.8986 31.905 40.8848 31.9023V31.8995Z" fill="white"/>
<path d="M54.5034 16.0297C53.5134 15.2872 52.4712 14.6162 51.3849 14.025C49.6854 13.1037 47.9144 12.3227 46.0857 11.693V8.05474C46.0857 6.60549 47.2627 5.43125 48.7119 5.4285H50.8459C51.2419 5.42575 51.5609 5.10125 51.5582 4.70525C51.5582 4.69975 51.5582 4.697 51.5582 4.6915V0.742499C51.5637 0.341 51.2447 0.011 50.8459 0H36.6367C36.2297 0 35.9024 0.33 35.9024 0.736999V4.6915C35.8942 5.09025 36.2132 5.42025 36.6119 5.4285C36.6202 5.4285 36.6284 5.4285 36.6367 5.4285H38.7982C40.2529 5.4285 41.4354 6.59999 41.4464 8.05474V10.384C39.4692 9.95774 37.4727 9.64699 35.4597 9.45174C35.2865 9.42974 35.1297 9.55349 35.1077 9.72674C35.0912 9.85324 35.1544 9.97699 35.2644 10.0402C38.4792 11.9652 41.0394 15.686 42.2082 20.2482C42.2467 20.416 42.4089 20.5232 42.5767 20.4957C47.2132 19.635 51.3134 18.2957 54.4512 16.544C54.6024 16.4642 54.6602 16.2745 54.5804 16.1232C54.5612 16.0875 54.5364 16.0545 54.5034 16.0297ZM43.5337 10.901C43.3357 10.8515 43.1157 10.802 42.8957 10.7277V8.05474C42.8957 6.62199 42.1422 5.2965 40.9074 4.5705C42.4144 4.9445 43.4897 6.27824 43.5337 7.83199V10.901ZM40.0494 3.85H37.3489V1.47675H50.1089V3.85H47.6339C45.9647 3.85 44.4632 4.85925 43.8307 6.40199C43.2147 4.85375 41.7159 3.84175 40.0494 3.85ZM44.6364 9.44349V11.22C44.4659 11.1705 44.2954 11.121 44.1469 11.0715V7.58724C44.2927 6.23974 45.2002 5.09575 46.4762 4.642C45.3157 5.39 44.6144 6.67424 44.6117 8.05474V9.42974C44.6117 9.42974 44.6227 9.45174 44.6364 9.45174V9.44349Z" fill="white"/>
<path d="M30.9051 21.5894C34.4278 21.5619 37.9451 21.2649 41.4211 20.6984C39.8618 14.3377 35.6461 9.69841 30.6218 9.46191V21.3117C30.6218 21.4629 30.7456 21.5867 30.8968 21.5867H30.9051V21.5894Z" fill="white"/>
<path d="M54.23 36.003C51.0647 34.309 46.992 32.978 42.405 32.153C42.284 32.1227 42.163 32.197 42.1327 32.318C42.1327 32.3207 42.1327 32.3235 42.1327 32.3262C40.8567 36.8885 38.258 40.546 34.969 42.3857C34.8507 42.46 34.815 42.6167 34.8892 42.735C34.9387 42.812 35.024 42.8587 35.1147 42.8532C36.784 42.68 38.4285 42.46 39.9987 42.1657C38.5055 44.3052 36.058 45.5785 33.4482 45.5757H32.956C30.2032 45.573 27.6457 44.154 26.1827 41.822C27.1727 42.3225 28.248 42.6387 29.3507 42.7542C29.5652 42.768 29.7522 42.6057 29.766 42.3885C29.766 42.3802 29.766 42.3692 29.766 42.361V31.4875C29.766 31.273 29.5955 31.0997 29.381 31.097C29.3782 31.097 29.3755 31.097 29.3727 31.097C27.9015 31.097 26.4275 31.1685 24.9727 31.2675V30.4425C26.4192 30.3187 27.8932 30.2692 29.3892 30.2445C29.5982 30.2362 29.7632 30.0602 29.7577 29.8512V22.825C29.7632 22.616 29.5982 22.4427 29.3892 22.4345C27.8932 22.4345 26.4192 22.3602 24.9727 22.2612V21.4032C26.444 21.5022 27.9427 21.5737 29.4387 21.5985C29.6147 21.5985 29.755 21.4555 29.7577 21.2795V9.45449C28.0335 9.56999 26.378 10.1667 24.9727 11.1732V8.05474C24.9727 6.6055 26.1497 5.43125 27.599 5.4285H29.7082C30.1042 5.42575 30.4232 5.10125 30.4205 4.70525C30.4205 4.69975 30.4205 4.697 30.4205 4.6915V0.7425C30.426 0.3465 30.1152 0.0165 29.7192 0H8.52499C8.11799 0 7.79074 0.33 7.78799 0.737V4.6915C7.77974 5.09025 8.09874 5.42025 8.49749 5.4285C8.50574 5.4285 8.51674 5.4285 8.52499 5.4285H10.5847C12.0312 5.43675 13.1972 6.60825 13.2 8.05474V12.1C11.759 12.6472 10.3565 13.2907 9.00349 14.025C7.95024 14.5942 6.94099 15.2377 5.9785 15.95C5.808 16.0902 5.7805 16.3432 5.92075 16.5137C5.9565 16.5577 6.0005 16.5907 6.05 16.6182C8.32424 17.809 10.7222 18.7467 13.2 19.415V20.2977C9.96049 19.415 7.11424 18.2627 4.83175 16.8877H4.807C1.694 19.6102 0 22.7782 0 26.1387C0 29.4992 1.71875 32.725 4.90875 35.4392C5.0325 35.541 5.20575 35.5602 5.34875 35.4887C7.83199 34.1385 10.4665 33.0907 13.2 32.373V33.2557C10.8405 33.891 8.55249 34.771 6.37725 35.882C6.18475 35.9947 6.1215 36.2395 6.2315 36.432C6.25625 36.4732 6.28925 36.5117 6.32775 36.542C7.19124 37.1497 8.08499 37.7107 9.00624 38.225C10.6617 39.1132 12.3832 39.8695 14.1597 40.4827C14.245 40.5322 14.3495 40.5322 14.4347 40.4827C17.006 46.948 23.254 51.194 30.2115 51.2077H30.6047C37.169 51.2022 43.0182 47.0635 45.2072 40.876C45.232 40.876 45.232 40.8512 45.232 40.8265C47.3632 40.1637 49.423 39.292 51.3837 38.225C52.3765 37.6777 53.3335 37.07 54.2547 36.41C54.362 36.322 54.3785 36.1652 54.2932 36.058C54.2767 36.036 54.2547 36.0167 54.23 36.003ZM23.507 8.05474V37.5732C23.507 42.7955 27.7337 47.0332 32.956 47.047H33.4482C37.0205 47.0552 40.2902 45.0395 41.888 41.844C41.9127 41.8192 41.9127 41.7945 41.9375 41.745C42.0585 41.7202 42.1822 41.6955 42.2812 41.6707C40.3095 45.8177 36.124 48.4577 31.5315 48.444H31.2867C24.6867 48.444 19.338 43.0952 19.338 36.4952V9.01174C19.3985 6.4735 21.4747 4.44675 24.013 4.44675H25.707C24.3595 5.14525 23.5097 6.53675 23.507 8.05474ZM9.22624 3.85V1.47675H28.9795V3.85H23.9992C21.7635 3.85 19.7725 5.269 19.0492 7.38375C18.315 5.269 16.324 3.85 14.0855 3.85H9.22624ZM30.5992 49.7365H30.206C21.6315 49.7255 14.685 42.779 14.674 34.2045V8.05474C14.674 6.5395 13.8325 5.148 12.4905 4.44675H14.0855C16.6237 4.44675 18.7 6.4735 18.7605 9.01174V36.4952C18.766 43.4197 24.376 49.0297 31.3005 49.0325H31.5452C36.5447 49.0517 41.0712 46.0735 43.032 41.4755C43.175 41.448 43.3125 41.4067 43.4472 41.3517C41.2115 46.453 36.168 49.7475 30.5992 49.7447V49.7365Z" fill="white"/>
<path d="M55.878 17.1505C55.6993 16.9938 55.4408 16.969 55.2373 17.09C52.0363 18.927 47.8123 20.357 43.008 21.2755C42.711 21.3333 42.5158 21.6165 42.5708 21.9135C43.096 24.834 43.0713 27.826 42.4993 30.7383C42.4388 31.0353 42.6285 31.3268 42.9255 31.3873C42.9255 31.3873 42.931 31.3873 42.9338 31.3873C47.6088 32.281 51.764 33.6533 54.9458 35.4215C55.1465 35.5343 55.394 35.5123 55.57 35.3638C58.716 32.6495 60.4018 29.4678 60.4018 26.1238C60.4018 22.7798 58.826 19.7988 55.878 17.1478V17.1505Z" fill="white"/>
<path d="M31.0082 30.2492C34.4072 30.2739 37.8007 30.5517 41.1585 31.0742C41.3647 31.1044 41.56 30.9724 41.604 30.7689C42.2035 27.8402 42.231 24.8234 41.6837 21.8837C41.637 21.6884 41.45 21.5592 41.252 21.5867C37.8667 22.1229 34.4485 22.4062 31.022 22.4392C30.8102 22.4419 30.6397 22.6124 30.637 22.8242V29.8532C30.637 30.0649 30.8102 30.2382 31.022 30.2382L31.0082 30.2492Z" fill="white"/>
<path d="M151.33 18.949L154 18.311L153.89 16.584H144.851L144.738 18.2257L147.103 18.9737V24.5947H139.343V18.949L141.928 18.311L141.818 16.584H132.723L132.608 18.201L135.116 18.9737V33.3342L132.556 34.1372L132.668 35.724H141.818L141.928 33.942L139.343 33.3012V26.847H147.103V33.3342L144.625 34.1097L144.793 35.724H153.915L154 33.942L151.33 33.3012V18.949Z" fill="white"/>
<path d="M92.3159 20.899C91.6036 16.1635 86.4034 16.5567 84.9294 16.5567C83.4554 16.5567 79.7511 17.2442 76.5144 16.4082L76.0469 18.226C76.7839 18.534 77.5484 18.7732 78.3294 18.9382V33.3647L75.8021 33.9559L75.8764 35.7214C75.8764 35.7214 78.8464 35.5729 80.4634 35.5729C82.0804 35.5729 85.1521 35.7214 85.1521 35.7214L85.2484 33.9559L82.4984 33.3179V28.2249C83.0869 28.3459 85.3694 28.7392 87.5529 28.2249C90.1076 27.6089 93.0281 25.6729 92.3159 20.899ZM82.5011 25.7692V19.2902C82.6469 19.2682 82.7954 19.2682 82.9439 19.2435C86.9176 18.875 88.0231 20.591 88.0231 22.4582C88.0231 24.3254 86.8681 26.5062 82.5011 25.7692Z" fill="white"/>
<path d="M111.486 16.794C111.494 16.728 111.45 16.6675 111.384 16.6565C111.376 16.6565 111.368 16.6565 111.357 16.6565C108.951 16.8078 106.536 16.794 104.13 16.6125L104.017 18.279L106.327 18.9528C106.327 18.9528 104.518 23.9935 103.225 27.3293L103.184 26.694C103.184 26.694 101.3 22.1648 100.503 20.0748C99.705 17.9848 99.5565 17.4183 99.5153 16.5713C99.5153 16.5713 97.197 16.9013 93.3113 16.5713L93.1133 18.2405L95.2583 18.9913L100.043 29.9225H102.268C102.268 29.9225 101.24 33.3875 99.5428 33.6488L96.482 31.7238C96.482 31.7238 94.667 32.2985 94.7275 34.1988C94.788 36.099 99.1028 37.6225 101.636 34.834C104.056 32.172 107.358 22.734 108.236 21.0565C108.744 20.1105 109.798 18.8015 111.261 18.3835L111.486 16.794Z" fill="white"/>
<path d="M130.104 33.2548C129.735 33.2053 128.704 33.0815 127.601 33.01V18.9245L130.153 18.3113L130.104 16.499C130.104 16.499 127.676 16.7218 123.229 16.6723C119.305 16.6228 114.445 16.6228 113.389 16.6228C113.277 16.62 113.18 16.7053 113.169 16.818L113.095 18.1188C113.073 18.1903 113.114 18.2645 113.186 18.2865C113.197 18.2893 113.208 18.292 113.219 18.292C114.146 18.4928 115.004 18.9245 115.721 19.5433C115.721 19.5433 115.845 24.353 115.133 26.8555C114.421 29.358 113.736 31.074 111.924 32.9358C110.747 33.032 109.985 33.1558 109.691 33.2108C109.608 33.2273 109.545 33.296 109.542 33.3813L109.886 40.8063H111.849L113.15 35.727H126.598L127.423 40.8063H129.656L130.244 33.4445C130.25 33.3565 130.189 33.2768 130.104 33.2548ZM123.405 33.1063C122.055 33.1805 120.534 33.0568 116.951 32.8863C116.401 32.8615 115.851 32.8368 115.331 32.8368C116.629 30.7908 117.465 28.489 117.784 26.0883C118.375 21.7708 118.152 19.1445 118.152 19.1445L123.405 19.095V33.1063Z" fill="white"/>
</svg>
