<svg width="62" height="62" viewBox="0 0 62 62" fill="none" xmlns="http://www.w3.org/2000/svg">
<path d="M41.6849 37.2945C38.4179 36.794 35.1207 36.5245 31.8179 36.4888C31.6007 36.4888 31.4247 36.662 31.4219 36.8793C31.4219 36.8793 31.4219 36.8793 31.4219 36.882V47.7638C31.4219 47.9838 31.6034 48.157 31.8207 48.157C31.8344 48.157 31.8454 48.157 31.8592 48.157C36.4572 47.6923 40.3347 43.537 42.0012 37.795C42.0617 37.586 41.9407 37.3688 41.7317 37.3083C41.7152 37.3028 41.6987 37.3 41.6849 37.2973V37.2945Z" fill="#1F1F1F"/>
<path d="M55.3034 21.4247C54.3134 20.6822 53.2711 20.0112 52.1849 19.42C50.4854 18.4987 48.7144 17.7177 46.8856 17.088V13.4498C46.8856 12.0005 48.0626 10.8263 49.5119 10.8235H51.6459C52.0419 10.8208 52.3609 10.4963 52.3581 10.1003C52.3581 10.0948 52.3581 10.092 52.3581 10.0865V6.13752C52.3636 5.73602 52.0446 5.40602 51.6459 5.39502H37.4366C37.0296 5.39502 36.7024 5.72502 36.7024 6.13202V10.0865C36.6941 10.4853 37.0131 10.8153 37.4119 10.8235C37.4201 10.8235 37.4284 10.8235 37.4366 10.8235H39.5981C41.0529 10.8235 42.2354 11.995 42.2464 13.4498V15.779C40.2691 15.3528 38.2726 15.042 36.2596 14.8468C36.0864 14.8248 35.9296 14.9485 35.9076 15.1218C35.8911 15.2483 35.9544 15.372 36.0644 15.4352C39.2791 17.3602 41.8394 21.081 43.0081 25.6432C43.0466 25.811 43.2089 25.9182 43.3766 25.8907C48.0131 25.03 52.1134 23.6907 55.2511 21.939C55.4024 21.8592 55.4601 21.6695 55.3804 21.5182C55.3611 21.4825 55.3364 21.4495 55.3034 21.4247ZM44.3336 16.296C44.1356 16.2465 43.9156 16.197 43.6956 16.1227V13.4498C43.6956 12.017 42.9421 10.6915 41.7074 9.96552C43.2144 10.3395 44.2896 11.6733 44.3336 13.227V16.296ZM40.8494 9.24502H38.1489V6.87177H50.9089V9.24502H48.4339C46.7646 9.24502 45.2631 10.2543 44.6306 11.797C44.0146 10.2488 42.5159 9.23677 40.8494 9.24502ZM45.4364 14.8385V16.615C45.2659 16.5655 45.0954 16.516 44.9469 16.4665V12.9823C45.0926 11.6348 46.0001 10.4908 47.2761 10.037C46.1156 10.785 45.4144 12.0693 45.4116 13.4498V14.8248C45.4116 14.8248 45.4226 14.8468 45.4364 14.8468V14.8385Z" fill="#1F1F1F"/>
<path d="M31.7052 26.9844C35.2279 26.9569 38.7452 26.6599 42.2212 26.0934C40.6619 19.7327 36.4462 15.0934 31.4219 14.8569V26.7067C31.4219 26.8579 31.5457 26.9817 31.6969 26.9817H31.7052V26.9844Z" fill="#1F1F1F"/>
<path d="M55.03 41.398C51.8647 39.704 47.792 38.373 43.205 37.548C43.084 37.5177 42.9631 37.592 42.9328 37.713C42.9328 37.7157 42.9328 37.7185 42.9328 37.7212C41.6568 42.2835 39.0581 45.941 35.7691 47.7807C35.6508 47.855 35.615 48.0117 35.6892 48.13C35.7387 48.207 35.824 48.2537 35.9147 48.2482C37.584 48.075 39.2285 47.855 40.7987 47.5607C39.3055 49.7002 36.858 50.9735 34.2482 50.9707H33.7561C31.0033 50.968 28.4457 49.549 26.9827 47.217C27.9727 47.7175 29.048 48.0337 30.1507 48.1492C30.3652 48.163 30.5522 48.0007 30.566 47.7835C30.566 47.7752 30.566 47.7642 30.566 47.756V36.8825C30.566 36.668 30.3955 36.4947 30.181 36.492C30.1782 36.492 30.1755 36.492 30.1727 36.492C28.7015 36.492 27.2275 36.5635 25.7727 36.6625V35.8375C27.2192 35.7137 28.6932 35.6642 30.1892 35.6395C30.3982 35.6312 30.5632 35.4552 30.5577 35.2462V28.22C30.5632 28.011 30.3982 27.8377 30.1892 27.8295C28.6932 27.8295 27.2192 27.7552 25.7727 27.6562V26.7982C27.244 26.8972 28.7427 26.9687 30.2387 26.9935C30.4147 26.9935 30.555 26.8505 30.5577 26.6745V14.8495C28.8335 14.965 27.178 15.5617 25.7727 16.5682V13.4498C25.7727 12.0005 26.9497 10.8263 28.399 10.8235H30.5082C30.9042 10.8208 31.2232 10.4963 31.2205 10.1003C31.2205 10.0948 31.2205 10.092 31.2205 10.0865V6.13752C31.226 5.74152 30.9152 5.41152 30.5192 5.39502H9.32504C8.91804 5.39502 8.59079 5.72502 8.58804 6.13202V10.0865C8.57979 10.4853 8.89879 10.8153 9.29754 10.8235C9.30579 10.8235 9.31679 10.8235 9.32504 10.8235H11.3847C12.8312 10.8318 13.9972 12.0033 14 13.4498V17.495C12.559 18.0422 11.1565 18.6857 9.80354 19.42C8.75029 19.9892 7.74104 20.6327 6.77855 21.345C6.60805 21.4852 6.58055 21.7382 6.7208 21.9087C6.75655 21.9527 6.80055 21.9857 6.85005 22.0132C9.12429 23.204 11.5222 24.1417 14 24.81V25.6927C10.7605 24.81 7.91429 23.6577 5.6318 22.2827H5.60705C2.49405 25.0052 0.800049 28.1732 0.800049 31.5337C0.800049 34.8942 2.5188 38.12 5.7088 40.8342C5.83255 40.936 6.0058 40.9552 6.1488 40.8837C8.63204 39.5335 11.2665 38.4857 14 37.768V38.6507C11.6405 39.286 9.35254 40.166 7.1773 41.277C6.9848 41.3897 6.92155 41.6345 7.03155 41.827C7.0563 41.8682 7.0893 41.9067 7.1278 41.937C7.99129 42.5447 8.88504 43.1057 9.80629 43.62C11.4617 44.5082 13.1832 45.2645 14.9597 45.8777C15.045 45.9272 15.1495 45.9272 15.2347 45.8777C17.806 52.343 24.054 56.589 31.0115 56.6027H31.4047C37.969 56.5972 43.8182 52.4585 46.0072 46.271C46.032 46.271 46.032 46.2462 46.032 46.2215C48.1632 45.5587 50.2231 44.687 52.1838 43.62C53.1766 43.0727 54.1335 42.465 55.0547 41.805C55.162 41.717 55.1786 41.5602 55.0933 41.453C55.0768 41.431 55.0547 41.4117 55.03 41.398ZM24.307 13.4498V42.9682C24.307 48.1905 28.5338 52.4282 33.7561 52.442H34.2482C37.8205 52.4502 41.0902 50.4345 42.688 47.239C42.7127 47.2142 42.7127 47.1895 42.7375 47.14C42.8585 47.1152 42.9822 47.0905 43.0812 47.0657C41.1095 51.2127 36.924 53.8527 32.3315 53.839H32.0867C25.4867 53.839 20.138 48.4902 20.138 41.8902V14.4068C20.1985 11.8685 22.2747 9.84177 24.813 9.84177H26.507C25.1595 10.5403 24.3097 11.9318 24.307 13.4498ZM10.0263 9.24502V6.87177H29.7795V9.24502H24.7992C22.5635 9.24502 20.5725 10.664 19.8492 12.7788C19.115 10.664 17.124 9.24502 14.8855 9.24502H10.0263ZM31.3992 55.1315H31.006C22.4315 55.1205 15.485 48.174 15.474 39.5995V13.4498C15.474 11.9345 14.6325 10.543 13.2905 9.84177H14.8855C17.4237 9.84177 19.5 11.8685 19.5605 14.4068V41.8902C19.566 48.8147 25.176 54.4247 32.1005 54.4275H32.3452C37.3447 54.4467 41.8713 51.4685 43.8321 46.8705C43.9751 46.843 44.1125 46.8017 44.2472 46.7467C42.0115 51.848 36.968 55.1425 31.3992 55.1397V55.1315Z" fill="#1F1F1F"/>
<path d="M56.678 22.545C56.4993 22.3883 56.2408 22.3635 56.0373 22.4845C52.8363 24.3215 48.6123 25.7515 43.808 26.67C43.511 26.7278 43.3158 27.011 43.3708 27.308C43.896 30.2285 43.8713 33.2205 43.2993 36.1328C43.2388 36.4298 43.4285 36.7213 43.7255 36.7818C43.7255 36.7818 43.731 36.7818 43.7338 36.7818C48.4088 37.6755 52.564 39.0478 55.7458 40.816C55.9465 40.9288 56.194 40.9068 56.37 40.7583C59.516 38.044 61.2018 34.8623 61.2018 31.5183C61.2018 28.1743 59.626 25.1933 56.678 22.5423V22.545Z" fill="#1F1F1F"/>
<path d="M31.8083 35.6442C35.2072 35.6689 38.6007 35.9467 41.9585 36.4692C42.1647 36.4994 42.36 36.3674 42.404 36.1639C43.0035 33.2352 43.031 30.2184 42.4837 27.2787C42.437 27.0834 42.25 26.9542 42.052 26.9817C38.6667 27.5179 35.2485 27.8012 31.822 27.8342C31.6103 27.8369 31.4398 28.0074 31.437 28.2192V35.2482C31.437 35.4599 31.6103 35.6332 31.822 35.6332L31.8083 35.6442Z" fill="#1F1F1F"/>
</svg>
