<svg width="69" height="71" viewBox="0 0 69 71" fill="none" xmlns="http://www.w3.org/2000/svg">
<path d="M10.8792 33.0032C11.2817 32.603 11.8245 32.3776 12.3926 32.38H29.6222C30.6963 32.38 31.568 31.5082 31.568 30.4341V23.4534C31.568 22.8899 31.7934 22.3495 32.1914 21.9515C32.5938 21.5513 33.1367 21.3282 33.7048 21.3282H40.6785C41.7526 21.3282 42.6243 20.4565 42.6243 19.3824V13.009C42.6243 11.9349 41.7526 11.0632 40.6785 11.0632H33.7186C32.5363 11.0632 31.5772 10.104 31.5749 8.91953V1.94581C31.5749 0.871743 30.7032 0 29.6291 0H1.97801C0.885558 0 0 0.885482 0 1.97801V8.27781C0 9.37034 0.885558 10.2559 1.97801 10.2559H30.234C31.4208 10.2559 32.3822 11.2173 32.3822 12.4041V19.9919C32.3822 20.5577 32.1568 21.1028 31.7566 21.5031C31.3564 21.9033 30.8113 22.1264 30.2455 22.1264H13.009C11.9349 22.1264 11.0632 22.9981 11.0632 24.0722V31.0528C11.0632 31.6186 10.8401 32.1614 10.4399 32.5616C10.0397 32.9618 9.49684 33.185 8.93109 33.185H1.94588C0.871743 33.1872 0 34.0566 0 35.1308V41.495C0 42.5691 0.871743 43.4408 1.94588 43.4408H8.93334C9.49917 43.4408 10.042 43.6639 10.4422 44.0641C10.8424 44.4643 11.0655 45.0071 11.0655 45.5729V52.5584C11.0655 53.6319 11.9372 54.5042 13.0114 54.5042H40.6623C41.7549 54.5042 42.6404 53.6184 42.6404 52.5261V46.2285C42.6404 45.1359 41.7549 44.2504 40.6623 44.2504H12.3995C11.8314 44.2504 11.2886 44.0273 10.8861 43.6271C10.4859 43.2292 10.2628 42.6887 10.2628 42.1252V34.5213C10.2582 33.9554 10.479 33.4103 10.8792 33.0079V33.0032Z" fill="#1F1F1F"/>
<path d="M64.3628 31.2389C64.3193 31.1929 64.257 31.1676 64.1954 31.1676H63.2153C63.1509 31.1676 63.091 31.1929 63.0474 31.2389L63.029 31.2573C62.9829 31.301 62.9576 31.3631 62.9576 31.4252V34.9787C62.9576 35.0432 62.9829 35.103 63.029 35.1467L63.0474 35.1651C63.091 35.2111 63.1531 35.2364 63.2153 35.2364H64.1954C64.2592 35.2364 64.3193 35.2111 64.3628 35.1651L64.3816 35.1467C64.4274 35.103 64.4529 35.0409 64.4529 34.9787V31.4252C64.4529 31.3608 64.4274 31.301 64.3816 31.2573L64.3628 31.2389Z" fill="#1F1F1F"/>
<path d="M64.3769 47.7533C64.3311 47.7072 64.2688 47.6819 64.2043 47.6819H63.2291C63.1647 47.6819 63.1026 47.7072 63.0566 47.7533L63.0405 47.7693C62.9945 47.8154 62.9692 47.8774 62.9692 47.9419V48.9148C62.9692 48.9792 62.9945 49.0413 63.0405 49.0873L63.0566 49.1034C63.1026 49.1494 63.1647 49.1747 63.2291 49.1747H64.2088C64.2733 49.1747 64.3356 49.1494 64.3814 49.1034C64.434 49.0574 64.4618 48.9907 64.4618 48.9217V47.9442C64.4618 47.8798 64.437 47.8177 64.3904 47.7717L64.3747 47.7555L64.3769 47.7533Z" fill="#1F1F1F"/>
<path d="M67.0496 11.0746H60.0896C59.5192 11.0746 58.9741 10.8423 58.5739 10.4375C58.1714 10.035 57.946 9.48988 57.9483 8.9218V1.95499C57.946 0.876268 57.072 0.00219727 55.9932 0.00219727H49.6428C48.5641 0.00219727 47.6901 0.876268 47.6901 1.95499V8.30305C47.6901 9.38177 48.5641 10.2558 49.6428 10.2558H56.6051C57.1732 10.2558 57.7183 10.4812 58.1208 10.8814C58.5233 11.2839 58.7487 11.829 58.7464 12.3971V52.5486C58.7464 53.6274 59.6204 54.5012 60.6992 54.5012H67.0474C68.1262 54.5012 69 53.6274 69 52.5486V13.0273C69 11.9486 68.1262 11.0746 67.0474 11.0746H67.0496ZM65.7291 52.7926C65.7291 52.9262 65.621 53.0343 65.4881 53.0343H64.6848C64.552 53.0343 64.4439 52.9262 64.4439 52.7926V49.1287L64.4116 49.1609C64.365 49.2069 64.3403 49.269 64.3403 49.3334V50.219C64.3403 50.352 64.2322 50.4601 64.0985 50.4601H63.2959C63.1625 50.4601 63.0544 50.352 63.0544 50.219V49.3288C63.0544 49.2644 63.0291 49.2023 62.9831 49.1563L62.9509 49.1241V52.8039C62.9509 52.9375 62.8428 53.0456 62.7094 53.0456H61.9182C61.7848 53.0456 61.6767 52.9375 61.6767 52.8039V48.0339C61.6767 47.9005 61.7848 47.7924 61.9182 47.7924H62.8106C62.875 47.7924 62.9371 47.7671 62.9831 47.7211L62.9969 47.7073C63.0429 47.6613 63.0682 47.5992 63.0682 47.5348V46.6447C63.0682 46.5113 63.1763 46.4032 63.3097 46.4032H64.112C64.2457 46.4032 64.3538 46.5113 64.3538 46.6447V47.5348C64.3538 47.5992 64.3793 47.6613 64.4251 47.7073L64.4394 47.7211C64.4851 47.7671 64.5475 47.7924 64.6113 47.7947H65.4904C65.6232 47.7947 65.7314 47.9028 65.7314 48.0362V52.7926H65.7291ZM65.7359 44.5378C65.7359 44.6805 65.6187 44.7977 65.4761 44.7977H64.6969C64.5542 44.7977 64.4364 44.6805 64.4364 44.5378V39.694C64.4364 39.6273 64.4093 39.5652 64.3628 39.5168C64.3147 39.4709 64.2524 39.4456 64.1864 39.4433H63.2177C63.151 39.4433 63.0889 39.4709 63.0406 39.5168C62.9946 39.5652 62.9693 39.6273 62.967 39.694V44.5355C62.967 44.6781 62.8497 44.7954 62.7071 44.7954H61.9273C61.7848 44.7954 61.6674 44.6781 61.6674 44.5355V39.7814C61.6674 39.6387 61.7848 39.5215 61.9273 39.5215H62.7991C62.8658 39.5215 62.9278 39.4939 62.9762 39.4478C63.0222 39.3996 63.0475 39.3375 63.0498 39.2707V38.3944C63.0498 38.2519 63.1671 38.1345 63.3097 38.1345H64.0895C64.2322 38.1345 64.3493 38.2519 64.3493 38.3944V39.2707C64.3493 39.3375 64.3748 39.4019 64.4206 39.4502C64.4686 39.4962 64.5309 39.5215 64.5978 39.5237H65.4761C65.6187 39.5237 65.7359 39.6411 65.7359 39.7836V44.5378ZM65.7411 34.8914C65.7411 35.0226 65.6353 35.1284 65.5039 35.1284H64.6068C64.5422 35.1284 64.4829 35.1537 64.4394 35.1997L64.4206 35.2181C64.3748 35.2618 64.3493 35.3239 64.3493 35.386V36.283C64.3493 36.4141 64.2434 36.5199 64.112 36.5199H63.2982C63.1671 36.5199 63.0613 36.4141 63.0613 36.283V35.386C63.0613 35.3216 63.0359 35.2618 62.99 35.2181L62.9716 35.1997C62.9279 35.1537 62.8658 35.1284 62.8037 35.1284H61.9066C61.7756 35.1284 61.6698 35.0226 61.6698 34.8914V31.5104C61.6698 31.3793 61.7756 31.2736 61.9066 31.2736H62.8037C62.8681 31.2736 62.9279 31.2483 62.9716 31.2022L62.99 31.1838C63.0359 31.1401 63.0613 31.0781 63.0613 31.0159V30.1189C63.0613 29.9878 63.1671 29.882 63.2982 29.882H64.112C64.2434 29.882 64.3493 29.9878 64.3493 30.1189V31.0159C64.3493 31.0803 64.3748 31.1401 64.4206 31.1838L64.4394 31.2022C64.4829 31.2483 64.5445 31.2736 64.6068 31.2736H65.5039C65.6353 31.2736 65.7411 31.3793 65.7411 31.5104V34.8914ZM63.2292 24.2998H64.1466C64.2089 24.2998 64.2667 24.2745 64.3102 24.2331L64.3335 24.2101C64.3725 24.1641 64.3928 24.1066 64.3906 24.0468V21.9515C64.3906 21.8227 64.4942 21.7192 64.6233 21.7192H65.4536C65.582 21.7192 65.6856 21.8227 65.6856 21.9515V23.9663C65.6856 24.0951 65.582 24.1986 65.4536 24.1986H64.5445C64.4829 24.1986 64.4251 24.2239 64.3815 24.2653L64.3583 24.2883C64.3147 24.332 64.2915 24.3918 64.2915 24.4516V25.4361C64.2915 25.4981 64.317 25.5556 64.3583 25.5993L64.3815 25.6223C64.4251 25.666 64.4852 25.6891 64.5445 25.6891H65.4536C65.582 25.6891 65.6856 25.7925 65.6856 25.9213V28.0374C65.6856 28.1661 65.582 28.2697 65.4536 28.2697H64.6233C64.4942 28.2697 64.3906 28.1661 64.3906 28.0374V25.8408C64.3906 25.7788 64.365 25.7213 64.3237 25.6776L64.3012 25.6545C64.2569 25.6108 64.1976 25.5878 64.1376 25.5878H63.2292C63.1004 25.5878 62.9969 25.6913 62.9969 25.8201V28.0374C62.9969 28.1661 62.8934 28.2697 62.7646 28.2697H61.9343C61.8054 28.2697 61.702 28.1661 61.702 28.0374V21.9538C61.702 21.825 61.8054 21.7215 61.9343 21.7215H62.7646C62.8934 21.7215 62.9969 21.825 62.9969 21.9538V24.0698C62.9969 24.1986 63.1004 24.3021 63.2292 24.3021V24.2998ZM67.1367 18.4554C67.1367 18.598 67.0196 18.7153 66.877 18.7153H65.9964C65.9318 18.7153 65.8695 18.743 65.8214 18.7889C65.7756 18.8372 65.7501 18.8993 65.7479 18.966V19.8354C65.7479 19.978 65.6308 20.0953 65.4881 20.0953H64.7081C64.5655 20.0953 64.4484 19.978 64.4484 19.8354V18.9545C64.4484 18.8901 64.4206 18.828 64.3748 18.7797C64.326 18.7337 64.2644 18.7084 64.1976 18.7061H63.2269C63.151 18.7038 63.0774 18.7337 63.0268 18.7889C62.9808 18.8372 62.9555 18.8993 62.9532 18.966V19.8607C62.9532 20.0033 62.8359 20.1206 62.6933 20.1206H61.9135C61.771 20.1206 61.6536 20.0033 61.6536 19.8607V18.9798C61.6536 18.9131 61.6261 18.8511 61.5801 18.8027C61.534 18.7567 61.472 18.7314 61.4053 18.7291H60.5703C60.4278 18.7291 60.3104 18.6118 60.3104 18.4692V13.8093C60.3104 13.6668 60.4278 13.5494 60.5703 13.5494H61.35C61.4927 13.5494 61.6099 13.6668 61.6099 13.8093V18.5543C61.6099 18.621 61.6376 18.6831 61.6836 18.7314C61.7295 18.7774 61.7917 18.8027 61.8584 18.805H62.829C62.8934 18.805 62.9555 18.7774 63.0038 18.7314C63.0498 18.6854 63.0751 18.6233 63.0774 18.5566V13.8093C63.0774 13.6668 63.1947 13.5494 63.3373 13.5494H64.1173C64.2599 13.5494 64.377 13.6668 64.377 13.8093V18.5566C64.377 18.621 64.4048 18.6831 64.4506 18.7314C64.4964 18.7774 64.5587 18.8027 64.6255 18.805H65.5962C65.66 18.805 65.7223 18.7774 65.7704 18.7314C65.8147 18.6831 65.8372 18.621 65.8372 18.5566V13.8093C65.8372 13.6668 65.9551 13.5494 66.097 13.5494H66.877C67.0196 13.5494 67.1367 13.6668 67.1367 13.8093V18.4554Z" fill="#1F1F1F"/>
<path d="M61.0838 63.3013L62.4983 62.26H57.7625V68.5203H62.4983V67.4783H59.115V65.8755H61.9992V64.8335H59.115V63.3013H61.0838Z" fill="#1F1F1F"/>
<path d="M54.1878 64.6999H52.5433V63.3013H55.1676L56.5821 62.26H51.1909V68.5226H54.013C55.5954 68.5226 56.504 67.8049 56.504 66.5564C56.504 65.3072 55.6805 64.7021 54.1878 64.7021V64.6999ZM53.9532 67.4783H52.5433V65.7419H53.9532C54.8111 65.7419 55.2113 66.0317 55.2113 66.609C55.2113 67.1863 54.7881 67.4761 53.9532 67.4761V67.4783Z" fill="#1F1F1F"/>
<path d="M66.3316 62.26H63.7534V68.5226H65.1034V66.7494H66.3293C67.9742 66.7494 68.9974 65.8845 68.9974 64.5024C68.9974 63.1196 67.9764 62.2623 66.3293 62.2623L66.3316 62.26ZM66.3015 65.7051H65.1034V63.3013H66.3015C67.1664 63.3013 67.6453 63.7292 67.6453 64.5024C67.6453 65.2749 67.1686 65.7028 66.3015 65.7028V65.7051Z" fill="#1F1F1F"/>
<path d="M48.8751 67.1659C48.5278 67.3566 48.1253 67.4579 47.709 67.4579C46.49 67.4579 45.6068 66.5886 45.6068 65.3904C45.6068 64.1915 46.49 63.3222 47.709 63.3222C48.1691 63.3222 48.583 63.4513 48.9372 63.7065L49.9056 62.9911L49.8411 62.9363C49.2753 62.4393 48.5186 62.1773 47.6538 62.1773C46.7154 62.1773 45.8644 62.4919 45.2572 63.0669C44.6454 63.6442 44.3096 64.4565 44.3096 65.3559C44.3096 66.2553 44.6454 67.0826 45.2549 67.6786C45.8667 68.277 46.7154 68.6058 47.6469 68.6058C48.5784 68.6058 49.4708 68.2649 50.0481 67.6486C49.6042 67.3198 49.1741 67.0045 49.1741 67.0045L48.8751 67.1681V67.1659Z" fill="#1F1F1F"/>
<path d="M41.1794 65.3905C41.1794 65.0729 41.1519 64.7599 41.0966 64.4588L39.9765 65.2846C39.9765 65.3191 39.9765 65.3559 39.9765 65.3905C39.9765 67.5961 38.1825 69.3926 35.9745 69.3926C33.7664 69.3926 31.9724 67.5983 31.9724 65.3905C31.9724 63.1826 33.7664 61.3883 35.9745 61.3883C36.8117 61.3883 37.5868 61.6458 38.2308 62.0873L39.2428 61.3425C38.3504 60.6203 37.2119 60.1879 35.9745 60.1879C33.1017 60.1879 30.7718 62.5174 30.7718 65.3905C30.7718 68.2627 33.1017 70.593 35.9745 70.593C38.8472 70.593 41.1772 68.2627 41.1772 65.3905H41.1794Z" fill="#1F1F1F"/>
<path d="M40.0931 62.2097C40.3392 62.5273 40.5485 62.8741 40.7165 63.2442L35.9761 66.7381L33.9957 65.4964V64.001L35.9761 65.2434L40.0931 62.2097Z" fill="#1F1F1F"/>
</svg>
