<svg width="69" height="71" viewBox="0 0 69 71" fill="none" xmlns="http://www.w3.org/2000/svg">
<path d="M10.8792 33.0032C11.2817 32.603 11.8245 32.3776 12.3926 32.38H29.6222C30.6963 32.38 31.568 31.5082 31.568 30.4341V23.4534C31.568 22.8899 31.7934 22.3495 32.1914 21.9515C32.5938 21.5513 33.1367 21.3282 33.7048 21.3282H40.6785C41.7526 21.3282 42.6243 20.4565 42.6243 19.3824V13.009C42.6243 11.9349 41.7526 11.0632 40.6785 11.0632H33.7186C32.5363 11.0632 31.5772 10.104 31.5749 8.91953V1.94581C31.5749 0.871743 30.7032 0 29.6291 0H1.97801C0.885558 0 0 0.885482 0 1.97801V8.27781C0 9.37034 0.885558 10.2559 1.97801 10.2559H30.234C31.4208 10.2559 32.3822 11.2173 32.3822 12.4041V19.9919C32.3822 20.5577 32.1568 21.1028 31.7566 21.5031C31.3564 21.9033 30.8113 22.1264 30.2455 22.1264H13.009C11.9349 22.1264 11.0632 22.9981 11.0632 24.0722V31.0528C11.0632 31.6186 10.8401 32.1614 10.4399 32.5616C10.0397 32.9618 9.49684 33.185 8.93109 33.185H1.94588C0.871743 33.1872 0 34.0566 0 35.1308V41.495C0 42.5691 0.871743 43.4408 1.94588 43.4408H8.93334C9.49917 43.4408 10.042 43.6639 10.4422 44.0641C10.8424 44.4643 11.0655 45.0071 11.0655 45.5729V52.5584C11.0655 53.6319 11.9372 54.5042 13.0114 54.5042H40.6623C41.7549 54.5042 42.6404 53.6184 42.6404 52.5261V46.2285C42.6404 45.1359 41.7549 44.2504 40.6623 44.2504H12.3995C11.8314 44.2504 11.2886 44.0273 10.8861 43.6271C10.4859 43.2292 10.2628 42.6887 10.2628 42.1252V34.5213C10.2582 33.9554 10.479 33.4103 10.8792 33.0079V33.0032Z" fill="white"/>
<path d="M64.3628 31.2393C64.3193 31.1933 64.257 31.168 64.1954 31.168H63.2153C63.1509 31.168 63.091 31.1933 63.0474 31.2393L63.029 31.2577C62.9829 31.3014 62.9576 31.3635 62.9576 31.4255V34.9791C62.9576 35.0435 62.9829 35.1034 63.029 35.147L63.0474 35.1654C63.091 35.2115 63.1531 35.2368 63.2153 35.2368H64.1954C64.2592 35.2368 64.3193 35.2115 64.3628 35.1654L64.3816 35.147C64.4274 35.1034 64.4529 35.0413 64.4529 34.9791V31.4255C64.4529 31.3612 64.4274 31.3014 64.3816 31.2577L64.3628 31.2393Z" fill="white"/>
<path d="M64.3769 47.753C64.3311 47.7069 64.2688 47.6816 64.2043 47.6816H63.2291C63.1647 47.6816 63.1026 47.7069 63.0566 47.753L63.0405 47.769C62.9945 47.815 62.9692 47.8771 62.9692 47.9415V48.9145C62.9692 48.9789 62.9945 49.041 63.0405 49.087L63.0566 49.1031C63.1026 49.1491 63.1647 49.1744 63.2291 49.1744H64.2088C64.2733 49.1744 64.3356 49.1491 64.3814 49.1031C64.434 49.057 64.4618 48.9904 64.4618 48.9214V47.9439C64.4618 47.8795 64.437 47.8174 64.3904 47.7714L64.3747 47.7552L64.3769 47.753Z" fill="white"/>
<path d="M67.0496 11.0743H60.0896C59.5192 11.0743 58.9741 10.8421 58.5739 10.4373C58.1714 10.0347 57.946 9.48963 57.9483 8.92156V1.95474C57.946 0.876024 57.072 0.00195312 55.9932 0.00195312H49.6428C48.5641 0.00195312 47.6901 0.876024 47.6901 1.95474V8.30281C47.6901 9.38153 48.5641 10.2555 49.6428 10.2555H56.6051C57.1732 10.2555 57.7183 10.481 58.1208 10.8812C58.5233 11.2836 58.7487 11.8287 58.7464 12.3969V52.5484C58.7464 53.6272 59.6204 54.501 60.6992 54.501H67.0474C68.1262 54.501 69 53.6272 69 52.5484V13.0271C69 11.9483 68.1262 11.0743 67.0474 11.0743H67.0496ZM65.7291 52.7924C65.7291 52.926 65.621 53.0341 65.4881 53.0341H64.6848C64.552 53.0341 64.4439 52.926 64.4439 52.7924V49.1285L64.4116 49.1606C64.365 49.2067 64.3403 49.2687 64.3403 49.3332V50.2187C64.3403 50.3517 64.2322 50.4598 64.0985 50.4598H63.2959C63.1625 50.4598 63.0544 50.3517 63.0544 50.2187V49.3286C63.0544 49.2642 63.0291 49.2021 62.9831 49.1561L62.9509 49.1239V52.8036C62.9509 52.9372 62.8428 53.0453 62.7094 53.0453H61.9182C61.7848 53.0453 61.6767 52.9372 61.6767 52.8036V48.0336C61.6767 47.9002 61.7848 47.7921 61.9182 47.7921H62.8106C62.875 47.7921 62.9371 47.7668 62.9831 47.7208L62.9969 47.7071C63.0429 47.6611 63.0682 47.599 63.0682 47.5346V46.6444C63.0682 46.511 63.1763 46.4029 63.3097 46.4029H64.112C64.2457 46.4029 64.3538 46.511 64.3538 46.6444V47.5346C64.3538 47.599 64.3793 47.6611 64.4251 47.7071L64.4394 47.7208C64.4851 47.7668 64.5475 47.7921 64.6113 47.7945H65.4904C65.6232 47.7945 65.7314 47.9026 65.7314 48.036V52.7924H65.7291ZM65.7359 44.5376C65.7359 44.6802 65.6187 44.7975 65.4761 44.7975H64.6969C64.5542 44.7975 64.4364 44.6802 64.4364 44.5376V39.6938C64.4364 39.627 64.4093 39.5649 64.3628 39.5166C64.3147 39.4706 64.2524 39.4453 64.1864 39.443H63.2177C63.151 39.443 63.0889 39.4706 63.0406 39.5166C62.9946 39.5649 62.9693 39.627 62.967 39.6938V44.5353C62.967 44.6779 62.8497 44.7952 62.7071 44.7952H61.9273C61.7848 44.7952 61.6674 44.6779 61.6674 44.5353V39.7811C61.6674 39.6385 61.7848 39.5212 61.9273 39.5212H62.7991C62.8658 39.5212 62.9278 39.4936 62.9762 39.4476C63.0222 39.3993 63.0475 39.3372 63.0498 39.2705V38.3942C63.0498 38.2516 63.1671 38.1343 63.3097 38.1343H64.0895C64.2322 38.1343 64.3493 38.2516 64.3493 38.3942V39.2705C64.3493 39.3372 64.3748 39.4016 64.4206 39.4499C64.4686 39.4959 64.5309 39.5212 64.5978 39.5235H65.4761C65.6187 39.5235 65.7359 39.6408 65.7359 39.7834V44.5376ZM65.7411 34.8912C65.7411 35.0224 65.6353 35.1281 65.5039 35.1281H64.6068C64.5422 35.1281 64.4829 35.1534 64.4394 35.1995L64.4206 35.2178C64.3748 35.2615 64.3493 35.3236 64.3493 35.3858V36.2828C64.3493 36.4138 64.2434 36.5197 64.112 36.5197H63.2982C63.1671 36.5197 63.0613 36.4138 63.0613 36.2828V35.3858C63.0613 35.3214 63.0359 35.2615 62.99 35.2178L62.9716 35.1995C62.9279 35.1534 62.8658 35.1281 62.8037 35.1281H61.9066C61.7756 35.1281 61.6698 35.0224 61.6698 34.8912V31.5102C61.6698 31.3791 61.7756 31.2733 61.9066 31.2733H62.8037C62.8681 31.2733 62.9279 31.248 62.9716 31.202L62.99 31.1836C63.0359 31.1399 63.0613 31.0778 63.0613 31.0157V30.1187C63.0613 29.9875 63.1671 29.8818 63.2982 29.8818H64.112C64.2434 29.8818 64.3493 29.9875 64.3493 30.1187V31.0157C64.3493 31.0801 64.3748 31.1399 64.4206 31.1836L64.4394 31.202C64.4829 31.248 64.5445 31.2733 64.6068 31.2733H65.5039C65.6353 31.2733 65.7411 31.3791 65.7411 31.5102V34.8912ZM63.2292 24.2996H64.1466C64.2089 24.2996 64.2667 24.2743 64.3102 24.2328L64.3335 24.2099C64.3725 24.1639 64.3928 24.1063 64.3906 24.0466V21.9512C64.3906 21.8224 64.4942 21.719 64.6233 21.719H65.4536C65.582 21.719 65.6856 21.8224 65.6856 21.9512V23.966C65.6856 24.0949 65.582 24.1984 65.4536 24.1984H64.5445C64.4829 24.1984 64.4251 24.2237 64.3815 24.2651L64.3583 24.2881C64.3147 24.3318 64.2915 24.3916 64.2915 24.4514V25.4358C64.2915 25.4979 64.317 25.5554 64.3583 25.5991L64.3815 25.6221C64.4251 25.6658 64.4852 25.6888 64.5445 25.6888H65.4536C65.582 25.6888 65.6856 25.7923 65.6856 25.9211V28.0372C65.6856 28.1659 65.582 28.2694 65.4536 28.2694H64.6233C64.4942 28.2694 64.3906 28.1659 64.3906 28.0372V25.8406C64.3906 25.7785 64.365 25.721 64.3237 25.6773L64.3012 25.6543C64.2569 25.6106 64.1976 25.5876 64.1376 25.5876H63.2292C63.1004 25.5876 62.9969 25.6911 62.9969 25.8199V28.0372C62.9969 28.1659 62.8934 28.2694 62.7646 28.2694H61.9343C61.8054 28.2694 61.702 28.1659 61.702 28.0372V21.9536C61.702 21.8247 61.8054 21.7212 61.9343 21.7212H62.7646C62.8934 21.7212 62.9969 21.8247 62.9969 21.9536V24.0696C62.9969 24.1984 63.1004 24.3018 63.2292 24.3018V24.2996ZM67.1367 18.4552C67.1367 18.5977 67.0196 18.7151 66.877 18.7151H65.9964C65.9318 18.7151 65.8695 18.7427 65.8214 18.7887C65.7756 18.837 65.7501 18.8991 65.7479 18.9657V19.8352C65.7479 19.9778 65.6308 20.0951 65.4881 20.0951H64.7081C64.5655 20.0951 64.4484 19.9778 64.4484 19.8352V18.9543C64.4484 18.8899 64.4206 18.8278 64.3748 18.7795C64.326 18.7335 64.2644 18.7082 64.1976 18.7058H63.2269C63.151 18.7036 63.0774 18.7335 63.0268 18.7887C62.9808 18.837 62.9555 18.8991 62.9532 18.9657V19.8605C62.9532 20.0031 62.8359 20.1204 62.6933 20.1204H61.9135C61.771 20.1204 61.6536 20.0031 61.6536 19.8605V18.9796C61.6536 18.9129 61.6261 18.8508 61.5801 18.8025C61.534 18.7564 61.472 18.7311 61.4053 18.7289H60.5703C60.4278 18.7289 60.3104 18.6116 60.3104 18.469V13.8091C60.3104 13.6665 60.4278 13.5492 60.5703 13.5492H61.35C61.4927 13.5492 61.6099 13.6665 61.6099 13.8091V18.5541C61.6099 18.6208 61.6376 18.6829 61.6836 18.7311C61.7295 18.7772 61.7917 18.8025 61.8584 18.8048H62.829C62.8934 18.8048 62.9555 18.7772 63.0038 18.7311C63.0498 18.6852 63.0751 18.623 63.0774 18.5564V13.8091C63.0774 13.6665 63.1947 13.5492 63.3373 13.5492H64.1173C64.2599 13.5492 64.377 13.6665 64.377 13.8091V18.5564C64.377 18.6208 64.4048 18.6829 64.4506 18.7311C64.4964 18.7772 64.5587 18.8025 64.6255 18.8048H65.5962C65.66 18.8048 65.7223 18.7772 65.7704 18.7311C65.8147 18.6829 65.8372 18.6208 65.8372 18.5564V13.8091C65.8372 13.6665 65.9551 13.5492 66.097 13.5492H66.877C67.0196 13.5492 67.1367 13.6665 67.1367 13.8091V18.4552Z" fill="white"/>
<path d="M61.0838 63.301L62.4983 62.2598H57.7625V68.5201H62.4983V67.4781H59.115V65.8753H61.9992V64.8333H59.115V63.301H61.0838Z" fill="white"/>
<path d="M54.1878 64.6996H52.5433V63.301H55.1676L56.5821 62.2598H51.1909V68.5223H54.013C55.5954 68.5223 56.504 67.8046 56.504 66.5562C56.504 65.307 55.6805 64.7019 54.1878 64.7019V64.6996ZM53.9532 67.4781H52.5433V65.7416H53.9532C54.8111 65.7416 55.2113 66.0314 55.2113 66.6087C55.2113 67.186 54.7881 67.4758 53.9532 67.4758V67.4781Z" fill="white"/>
<path d="M66.3316 62.2598H63.7534V68.5223H65.1034V66.7491H66.3293C67.9742 66.7491 68.9974 65.8843 68.9974 64.5022C68.9974 63.1193 67.9764 62.262 66.3293 62.262L66.3316 62.2598ZM66.3015 65.7049H65.1034V63.301H66.3015C67.1664 63.301 67.6453 63.7289 67.6453 64.5022C67.6453 65.2747 67.1686 65.7026 66.3015 65.7026V65.7049Z" fill="white"/>
<path d="M48.8751 67.1663C48.5278 67.357 48.1253 67.4583 47.709 67.4583C46.49 67.4583 45.6068 66.589 45.6068 65.3908C45.6068 64.1919 46.49 63.3226 47.709 63.3226C48.1691 63.3226 48.583 63.4517 48.9372 63.707L49.9056 62.9915L49.8411 62.9367C49.2753 62.4397 48.5186 62.1777 47.6538 62.1777C46.7154 62.1777 45.8644 62.4923 45.2572 63.0673C44.6454 63.6447 44.3096 64.4569 44.3096 65.3563C44.3096 66.2557 44.6454 67.083 45.2549 67.6791C45.8667 68.2774 46.7154 68.6062 47.6469 68.6062C48.5784 68.6062 49.4708 68.2654 50.0481 67.649C49.6042 67.3202 49.1741 67.0049 49.1741 67.0049L48.8751 67.1686V67.1663Z" fill="white"/>
<path d="M41.1794 65.39C41.1794 65.0725 41.1519 64.7594 41.0966 64.4584L39.9765 65.2842C39.9765 65.3187 39.9765 65.3555 39.9765 65.39C39.9765 67.5957 38.1825 69.3922 35.9745 69.3922C33.7664 69.3922 31.9724 67.5979 31.9724 65.39C31.9724 63.1821 33.7664 61.3879 35.9745 61.3879C36.8117 61.3879 37.5868 61.6454 38.2308 62.0868L39.2428 61.3421C38.3504 60.6199 37.2119 60.1875 35.9745 60.1875C33.1017 60.1875 30.7718 62.517 30.7718 65.39C30.7718 68.2623 33.1017 70.5926 35.9745 70.5926C38.8472 70.5926 41.1772 68.2623 41.1772 65.39H41.1794Z" fill="white"/>
<path d="M40.0931 62.21C40.3392 62.5275 40.5485 62.8744 40.7165 63.2445L35.9761 66.7383L33.9957 65.4966V64.0012L35.9761 65.2436L40.0931 62.21Z" fill="white"/>
</svg>
