<?xml version="1.0" encoding="utf-8"?>
<!-- Generator: Adobe Illustrator 28.0.0, SVG Export Plug-In . SVG Version: 6.00 Build 0)  -->
<svg version="1.1" id="Слой_1" xmlns="http://www.w3.org/2000/svg" xmlns:xlink="http://www.w3.org/1999/xlink" x="0px" y="0px"
	 viewBox="0 0 1000 176.5" style="enable-background:new 0 0 1000 176.5;" xml:space="preserve">
<style type="text/css">
	.st0{fill-rule:evenodd;clip-rule:evenodd;}
	.st1{fill:#0077FF;}
	.st2{fill:#FFFFFF;}
</style>
<g>
	<path class="st0" d="M492.6,91.9c0,24.6-17.9,40.4-43.2,40.4c-25.4,0-43.2-15.9-43.2-40.4s17.9-40.4,43.2-40.4
		C474.8,51.5,492.6,67.4,492.6,91.9z M424.9,91.9c0,15.2,9.9,25.7,24.6,25.7c14.6,0,24.6-10.5,24.6-25.7s-9.9-25.4-24.6-25.4
		C434.8,66.5,424.9,76.7,424.9,91.9z M299.6,90.4c7-3.2,11.5-8.7,11.5-17.1c0-12.7-11.6-21.8-28.5-21.8h-38.7v80.9h40.4
		c17.4,0,29.6-9.5,29.6-22.4C313.9,100.1,307.5,92.9,299.6,90.4z M261.8,66.2h20.8c6.2,0,10.6,3.7,10.6,8.8s-4.4,8.8-10.6,8.8h-20.8
		V66.2L261.8,66.2z M284.3,117.6h-22.5V97.8h22.5c7.1,0,11.7,4,11.7,10C296,113.7,291.4,117.6,284.3,117.6L284.3,117.6z
		 M381.2,132.4h23.5l-37.2-42l34.1-38.9h-21.3l-27.1,31.4h-4.4V51.5h-17.9v80.9h17.9v-32.2h4.3L381.2,132.4L381.2,132.4z
		 M562.3,51.5v31.9H526V51.5h-17.9v80.9H526V99.7h36.2v32.6h17.9V51.5H562.3L562.3,51.5z M639,132.4H621V67.8h-27.9V51.5h73.8v16.3
		H639C639,67.8,639,132.4,639,132.4z M710.3,51.5c-15.7,0-29.6,6.5-33.6,20.6l16.5,2.7c3.2-5.9,9.5-9.5,16.2-9.2
		c9.8,0,15.6,6.6,16.3,17.1h-17.4c-23.8,0-35.6,10.4-35.6,25.4c0,15.1,11.7,24.3,28.2,24.3c13.2,0,22.1-6,26-12.7l3.7,12.7h13.2
		V86.9C743.7,63.5,731,51.5,710.3,51.5z M705,118.8c-8.8,0-14.3-4.5-14.3-11.5c0-6.2,4.6-10.5,18.2-10.5h16.9
		C725.8,110,717.4,118.8,705,118.8z M836.2,132.4h-23.5l-27.9-32.2h-4.4v32.2h-17.8V51.5h17.9v31.4h4.3l27-31.4h21.3l-34,38.9
		L836.2,132.4L836.2,132.4z M867.6,132.4h17.9V67.8h27.9V51.5h-73.8v16.3h27.9V132.4z M958.1,51.5c24.5,0,41.9,16.2,41.9,39.5
		c0,2.2-0.1,4-0.3,5.8h-65c1.7,12.4,10.7,20.8,24.4,20.8c9.5,0,16.9-4,20.8-9.8l16.8,2.8c-6.1,15.4-21.9,21.8-38.8,21.8
		c-24.6,0-42-16-42-40.4S933.5,51.5,958.1,51.5L958.1,51.5z M980.6,82.7c-2.8-10.1-12.1-16.9-22.6-16.5
		c-10.4-0.4-19.6,6.5-22.2,16.5H980.6z"/>
	<path class="st1" d="M84.6,176.5h7.4c40,0,59.9,0,72.3-12.4c12.3-12.4,12.3-32.4,12.3-72.2v-7.5c0-39.7,0-59.7-12.3-72.1
		C151.8,0,131.8,0,91.9,0h-7.4c-40,0-59.9,0-72.3,12.4C0,24.7,0,44.7,0,84.6v7.5c0,39.7,0,59.7,12.4,72.1
		C24.7,176.5,44.7,176.5,84.6,176.5z"/>
	<path class="st2" d="M93.9,127.1c-40.2,0-63.2-27.6-64.1-73.5h20.1c0.7,33.7,15.5,47.9,27.3,50.9V53.7h19v29
		c11.6-1.2,23.8-14.5,27.9-29h19c-3.1,15.3-12.5,28.5-25.8,36.6c14.9,7.4,25.9,20.8,30.2,36.8h-20.9c-3.9-14.1-15.9-24.4-30.4-26.2
		v26.2C96.2,127.1,93.9,127.1,93.9,127.1z"/>
</g>
</svg>
